<svg width="946" height="818" viewBox="0 0 946 818" fill="none" xmlns="http://www.w3.org/2000/svg">
<path d="M480.682 577.071L348.577 603.017L284.965 624.178L296.96 682.645C318.205 699.15 369.673 732.782 405.587 735.266C441.502 737.75 562.493 722.73 618.5 714.909L676.883 776.585L916.479 725.496L1285.26 632.722L943.613 514.365C739.51 433.923 311.065 251.828 266.5 229.5C210.793 201.589 184.87 158.221 175 141.5C165.13 124.779 104.79 26.32 94.1113 14.0539C85.568 4.241 61.4617 0.60223 50.4764 0.00945854L139.923 235.744L258.083 360.695L129.538 393.419L115.81 403.496L113.05 443.401C144.046 476.418 311.219 481.316 390.432 490.637L480.682 577.071Z" fill="url(#paint0_linear)"/>
<defs>
<linearGradient id="paint0_linear" x1="793.5" y1="597.5" x2="279" y2="202" gradientUnits="userSpaceOnUse">
<stop stop-color="#E2EBF3" stop-opacity="0.9"/>
<stop offset="1" stop-color="#B7D5F3" stop-opacity="0"/>
</linearGradient>
</defs>
</svg>
